<?xml version="1.0" encoding="UTF-8" standalone="no"?>
<!DOCTYPE svg PUBLIC "-//W3C//DTD SVG 1.1//EN"
 "http://www.w3.org/Graphics/SVG/1.1/DTD/svg11.dtd">
<!-- Generated by graphviz version 2.43.0 (0)
 -->
<!-- Title: %3 Pages: 1 -->
<svg width="111pt" height="260pt"
 viewBox="0.00 0.00 111.00 260.00" xmlns="http://www.w3.org/2000/svg" xmlns:xlink="http://www.w3.org/1999/xlink">
<g id="graph0" class="graph" transform="scale(1 1) rotate(0) translate(4 256)">
<title>%3</title>
<polygon fill="white" stroke="transparent" points="-4,4 -4,-256 107,-256 107,4 -4,4"/>
<!-- folder -->
<g id="node1" class="node">
<title>folder</title>
<polygon fill="none" stroke="black" points="78.5,-252 75.5,-256 54.5,-256 51.5,-252 24.5,-252 24.5,-216 78.5,-216 78.5,-252"/>
<text text-anchor="middle" x="51.5" y="-230.3" font-family="Times,serif" font-size="14.00">folder</text>
</g>
<!-- S.syncthing&#45;enc -->
<g id="node2" class="node">
<title>S.syncthing&#45;enc</title>
<polygon fill="none" stroke="black" points="103,-180 100,-184 79,-184 76,-180 0,-180 0,-144 103,-144 103,-180"/>
<text text-anchor="middle" x="51.5" y="-158.3" font-family="Times,serif" font-size="14.00">S.syncthing&#45;enc</text>
</g>
<!-- folder&#45;&#45;S.syncthing&#45;enc -->
<g id="edge1" class="edge">
<title>folder&#45;&#45;S.syncthing&#45;enc</title>
<path fill="none" stroke="black" d="M51.5,-215.7C51.5,-204.85 51.5,-190.92 51.5,-180.1"/>
</g>
<!-- 21 -->
<g id="node3" class="node">
<title>21</title>
<polygon fill="none" stroke="black" points="78.5,-108 75.5,-112 54.5,-112 51.5,-108 24.5,-108 24.5,-72 78.5,-72 78.5,-108"/>
<text text-anchor="middle" x="51.5" y="-86.3" font-family="Times,serif" font-size="14.00">21</text>
</g>
<!-- S.syncthing&#45;enc&#45;&#45;21 -->
<g id="edge2" class="edge">
<title>S.syncthing&#45;enc&#45;&#45;21</title>
<path fill="none" stroke="black" d="M51.5,-143.7C51.5,-132.85 51.5,-118.92 51.5,-108.1"/>
</g>
<!-- K3P1VJO0... -->
<g id="node4" class="node">
<title>K3P1VJO0...</title>
<polygon fill="none" stroke="black" points="97.5,-36 5.5,-36 5.5,0 97.5,0 97.5,-36"/>
<text text-anchor="middle" x="51.5" y="-14.3" font-family="Times,serif" font-size="14.00">K3P1VJO0...</text>
</g>
<!-- 21&#45;&#45;K3P1VJO0... -->
<g id="edge3" class="edge">
<title>21&#45;&#45;K3P1VJO0...</title>
<path fill="none" stroke="black" d="M51.5,-71.7C51.5,-60.85 51.5,-46.92 51.5,-36.1"/>
</g>
</g>
</svg>
