<?xml version="1.0" encoding="UTF-8" standalone="no"?>
<!DOCTYPE svg PUBLIC "-//W3C//DTD SVG 1.1//EN"
 "http://www.w3.org/Graphics/SVG/1.1/DTD/svg11.dtd">
<!-- Generated by graphviz version 2.43.0 (0)
 -->
<!-- Title: g Pages: 1 -->
<svg width="365pt" height="62pt"
 viewBox="0.00 0.00 364.69 61.74" xmlns="http://www.w3.org/2000/svg" xmlns:xlink="http://www.w3.org/1999/xlink">
<g id="graph0" class="graph" transform="scale(1 1) rotate(0) translate(4 57.74)">
<title>g</title>
<polygon fill="white" stroke="transparent" points="-4,4 -4,-57.74 360.69,-57.74 360.69,4 -4,4"/>
<!-- T1 -->
<g id="node1" class="node">
<title>T1</title>
<ellipse fill="#7fc97f" stroke="#7fc97f" cx="56.57" cy="-26.87" rx="56.64" ry="26.74"/>
<text text-anchor="middle" x="56.57" y="-30.67" font-family="Times,serif" font-size="14.00">T1</text>
<text text-anchor="middle" x="56.57" y="-15.67" font-family="Times,serif" font-size="14.00">(Clear text)</text>
</g>
<!-- U1 -->
<g id="node2" class="node">
<title>U1</title>
<ellipse fill="#beaed4" stroke="#beaed4" cx="299.41" cy="-26.87" rx="57.05" ry="26.74"/>
<text text-anchor="middle" x="299.41" y="-30.67" font-family="Times,serif" font-size="14.00">U1</text>
<text text-anchor="middle" x="299.41" y="-15.67" font-family="Times,serif" font-size="14.00">(Encrypted)</text>
</g>
<!-- T1&#45;&gt;U1 -->
<g id="edge1" class="edge">
<title>T1&#45;&gt;U1</title>
<path fill="none" stroke="black" d="M113.43,-26.87C148.74,-26.87 194.57,-26.87 231.77,-26.87"/>
<polygon fill="black" stroke="black" points="232.02,-30.37 242.02,-26.87 232.02,-23.37 232.02,-30.37"/>
<text text-anchor="middle" x="177.64" y="-30.67" font-family="Times,serif" font-size="14.00">Encrypted by T1</text>
</g>
<!-- U1&#45;&gt;T1 -->
<g id="edge2" class="edge">
<title>U1&#45;&gt;T1</title>
<path fill="none" stroke="black" d="M250.41,-12.73C241.73,-10.71 232.72,-8.95 224.14,-7.87 183.13,-2.71 172.14,-2.66 131.14,-7.87 125.95,-8.53 120.61,-9.44 115.29,-10.51"/>
<polygon fill="black" stroke="black" points="114.14,-7.17 105.11,-12.73 115.63,-14.01 114.14,-7.17"/>
<text text-anchor="middle" x="177.64" y="-11.67" font-family="Times,serif" font-size="14.00">Decrypted by T1</text>
</g>
</g>
</svg>
