<?xml version="1.0" encoding="UTF-8" standalone="no"?>
<!DOCTYPE svg PUBLIC "-//W3C//DTD SVG 1.1//EN"
 "http://www.w3.org/Graphics/SVG/1.1/DTD/svg11.dtd">
<!-- Generated by graphviz version 2.43.0 (0)
 -->
<!-- Title: g Pages: 1 -->
<svg width="413pt" height="78pt"
 viewBox="0.00 0.00 413.00 78.00" xmlns="http://www.w3.org/2000/svg" xmlns:xlink="http://www.w3.org/1999/xlink">
<g id="graph0" class="graph" transform="scale(1 1) rotate(0) translate(4 74)">
<title>g</title>
<polygon fill="white" stroke="transparent" points="-4,4 -4,-74 409,-74 409,4 -4,4"/>
<!-- u -->
<g id="node1" class="node">
<title>u</title>
<polygon fill="none" stroke="black" points="0,-17 0,-53 119,-53 119,-17 0,-17"/>
<text text-anchor="middle" x="59.5" y="-31.3" font-family="Times,serif" font-size="14.00">plaintext (variable)</text>
</g>
<!-- e -->
<g id="node2" class="node">
<title>e</title>
<polygon fill="none" stroke="black" points="279,-0.5 279,-69.5 405,-69.5 405,-0.5 279,-0.5"/>
<text text-anchor="middle" x="342" y="-54.3" font-family="Times,serif" font-size="14.00">nonce (24 B)</text>
<polyline fill="none" stroke="black" points="279,-46.5 405,-46.5 "/>
<text text-anchor="middle" x="342" y="-31.3" font-family="Times,serif" font-size="14.00">ciphertext (variable)</text>
<polyline fill="none" stroke="black" points="279,-23.5 405,-23.5 "/>
<text text-anchor="middle" x="342" y="-8.3" font-family="Times,serif" font-size="14.00">tag (16 B)</text>
</g>
<!-- u&#45;&gt;e -->
<g id="edge1" class="edge">
<title>u:h&#45;&gt;e:h</title>
<path fill="none" stroke="black" d="M119.12,-35C160.51,-35 217.25,-35 268.77,-35"/>
<polygon fill="black" stroke="black" points="269,-38.5 279,-35 269,-31.5 269,-38.5"/>
<text text-anchor="middle" x="199" y="-38.8" font-family="Times,serif" font-size="14.00">XChaCha20&#45;Poly1305</text>
</g>
</g>
</svg>
