<?xml version="1.0" encoding="UTF-8" standalone="no"?>
<!DOCTYPE svg PUBLIC "-//W3C//DTD SVG 1.1//EN"
 "http://www.w3.org/Graphics/SVG/1.1/DTD/svg11.dtd">
<!-- Generated by graphviz version 2.40.1 (20161225.0304)
 -->
<!-- Title: g Pages: 1 -->
<svg width="415pt" height="78pt"
 viewBox="0.00 0.00 415.00 78.00" xmlns="http://www.w3.org/2000/svg" xmlns:xlink="http://www.w3.org/1999/xlink">
<g id="graph0" class="graph" transform="scale(1 1) rotate(0) translate(4 74)">
<title>g</title>
<polygon fill="#ffffff" stroke="transparent" points="-4,4 -4,-74 411,-74 411,4 -4,4"/>
<!-- u -->
<g id="node1" class="node">
<title>u</title>
<polygon fill="none" stroke="#000000" points="0,-17 0,-53 120,-53 120,-17 0,-17"/>
<text text-anchor="middle" x="60" y="-31.3" font-family="Times,serif" font-size="14.00" fill="#000000">plaintext (variable)</text>
</g>
<!-- e -->
<g id="node2" class="node">
<title>e</title>
<polygon fill="none" stroke="#000000" points="280,-.5 280,-69.5 407,-69.5 407,-.5 280,-.5"/>
<text text-anchor="middle" x="343.5" y="-54.3" font-family="Times,serif" font-size="14.00" fill="#000000">nonce (24 B)</text>
<polyline fill="none" stroke="#000000" points="280,-46.5 407,-46.5 "/>
<text text-anchor="middle" x="343.5" y="-31.3" font-family="Times,serif" font-size="14.00" fill="#000000">ciphertext (variable)</text>
<polyline fill="none" stroke="#000000" points="280,-23.5 407,-23.5 "/>
<text text-anchor="middle" x="343.5" y="-8.3" font-family="Times,serif" font-size="14.00" fill="#000000">tag (16 B)</text>
</g>
<!-- u&#45;&gt;e -->
<g id="edge1" class="edge">
<title>u:h&#45;&gt;e:h</title>
<path fill="none" stroke="#000000" d="M120.2276,-35C161.6782,-35 218.3333,-35 269.7851,-35"/>
<polygon fill="#000000" stroke="#000000" points="270,-38.5001 280,-35 270,-31.5001 270,-38.5001"/>
<text text-anchor="middle" x="200" y="-38.8" font-family="Times,serif" font-size="14.00" fill="#000000">XChaCha20&#45;Poly1305</text>
</g>
</g>
</svg>
