<?xml version="1.0" encoding="UTF-8" standalone="no"?>
<!DOCTYPE svg PUBLIC "-//W3C//DTD SVG 1.1//EN"
 "http://www.w3.org/Graphics/SVG/1.1/DTD/svg11.dtd">
<!-- Generated by graphviz version 2.40.1 (20161225.0304)
 -->
<!-- Title: g Pages: 1 -->
<svg width="428pt" height="51pt"
 viewBox="0.00 0.00 428.00 51.15" xmlns="http://www.w3.org/2000/svg" xmlns:xlink="http://www.w3.org/1999/xlink">
<g id="graph0" class="graph" transform="scale(1 1) rotate(0) translate(4 47.1514)">
<title>g</title>
<polygon fill="#ffffff" stroke="transparent" points="-4,4 -4,-47.1514 424,-47.1514 424,4 -4,4"/>
<!-- T1 -->
<g id="node1" class="node">
<title>T1</title>
<ellipse fill="#7fc97f" stroke="#7fc97f" cx="27" cy="-25.1514" rx="27" ry="18"/>
<text text-anchor="middle" x="27" y="-21.4514" font-family="Times,serif" font-size="14.00" fill="#000000">T1</text>
</g>
<!-- U1 -->
<g id="node2" class="node">
<title>U1</title>
<ellipse fill="#beaed4" stroke="#beaed4" cx="210" cy="-25.1514" rx="27" ry="18"/>
<text text-anchor="middle" x="210" y="-21.4514" font-family="Times,serif" font-size="14.00" fill="#000000">U1</text>
</g>
<!-- T1&#45;&gt;U1 -->
<g id="edge1" class="edge">
<title>T1&#45;&gt;U1</title>
<path fill="none" stroke="#000000" d="M54.0023,-25.1514C85.3578,-25.1514 137.2733,-25.1514 172.5235,-25.1514"/>
<polygon fill="#000000" stroke="#000000" points="172.887,-28.6515 182.8869,-25.1514 172.8869,-21.6515 172.887,-28.6515"/>
<text text-anchor="middle" x="118.5" y="-28.9514" font-family="Times,serif" font-size="14.00" fill="#000000">Encrypted by T1</text>
</g>
<!-- U1&#45;&gt;T1 -->
<g id="edge2" class="edge">
<title>U1&#45;&gt;T1</title>
<path fill="none" stroke="#000000" d="M188.5889,-14.0562C181.3022,-10.8426 172.9792,-7.7668 165,-6.1514 124.4886,2.0505 112.5114,2.0505 72,-6.1514 67.2623,-7.1106 62.4035,-8.5846 57.7123,-10.2965"/>
<polygon fill="#000000" stroke="#000000" points="56.3706,-7.0637 48.4111,-14.0562 58.994,-13.5535 56.3706,-7.0637"/>
<text text-anchor="middle" x="118.5" y="-9.9514" font-family="Times,serif" font-size="14.00" fill="#000000">Decrypted by T1</text>
</g>
<!-- T2 -->
<g id="node3" class="node">
<title>T2</title>
<ellipse fill="#7fc97f" stroke="#7fc97f" cx="393" cy="-25.1514" rx="27" ry="18"/>
<text text-anchor="middle" x="393" y="-21.4514" font-family="Times,serif" font-size="14.00" fill="#000000">T2</text>
</g>
<!-- U1&#45;&gt;T2 -->
<g id="edge3" class="edge">
<title>U1&#45;&gt;T2</title>
<path fill="none" stroke="#000000" d="M237.0023,-25.1514C268.3578,-25.1514 320.2733,-25.1514 355.5235,-25.1514"/>
<polygon fill="#000000" stroke="#000000" points="355.887,-28.6515 365.8869,-25.1514 355.8869,-21.6515 355.887,-28.6515"/>
<text text-anchor="middle" x="301.5" y="-28.9514" font-family="Times,serif" font-size="14.00" fill="#000000">Decrypted by T2</text>
</g>
<!-- T2&#45;&gt;U1 -->
<g id="edge4" class="edge">
<title>T2&#45;&gt;U1</title>
<path fill="none" stroke="#000000" d="M371.5889,-14.0562C364.3022,-10.8426 355.9792,-7.7668 348,-6.1514 307.4886,2.0505 295.5114,2.0505 255,-6.1514 250.2623,-7.1106 245.4035,-8.5846 240.7123,-10.2965"/>
<polygon fill="#000000" stroke="#000000" points="239.3706,-7.0637 231.4111,-14.0562 241.994,-13.5535 239.3706,-7.0637"/>
<text text-anchor="middle" x="301.5" y="-9.9514" font-family="Times,serif" font-size="14.00" fill="#000000">Encrypted by T2</text>
</g>
</g>
</svg>
