<?xml version="1.0" encoding="UTF-8" standalone="no"?>
<!DOCTYPE svg PUBLIC "-//W3C//DTD SVG 1.1//EN"
 "http://www.w3.org/Graphics/SVG/1.1/DTD/svg11.dtd">
<!-- Generated by graphviz version 2.43.0 (0)
 -->
<!-- Title: g Pages: 1 -->
<svg width="362pt" height="62pt"
 viewBox="0.00 0.00 362.27 61.74" xmlns="http://www.w3.org/2000/svg" xmlns:xlink="http://www.w3.org/1999/xlink">
<g id="graph0" class="graph" transform="scale(1 1) rotate(0) translate(4 57.74)">
<title>g</title>
<polygon fill="white" stroke="transparent" points="-4,4 -4,-57.74 358.27,-57.74 358.27,4 -4,4"/>
<!-- T1 -->
<g id="node1" class="node">
<title>T1</title>
<ellipse fill="#7fc97f" stroke="#7fc97f" cx="55.86" cy="-26.87" rx="55.72" ry="26.74"/>
<text text-anchor="middle" x="55.86" y="-30.67" font-family="Times,serif" font-size="14.00">T1</text>
<text text-anchor="middle" x="55.86" y="-15.67" font-family="Times,serif" font-size="14.00">(Clear text)</text>
</g>
<!-- U1 -->
<g id="node2" class="node">
<title>U1</title>
<ellipse fill="#beaed4" stroke="#beaed4" cx="297" cy="-26.87" rx="57.05" ry="26.74"/>
<text text-anchor="middle" x="297" y="-30.67" font-family="Times,serif" font-size="14.00">U1</text>
<text text-anchor="middle" x="297" y="-15.67" font-family="Times,serif" font-size="14.00">(Encrypted)</text>
</g>
<!-- T1&#45;&gt;U1 -->
<g id="edge1" class="edge">
<title>T1&#45;&gt;U1</title>
<path fill="none" stroke="black" d="M111.72,-26.87C146.64,-26.87 192.09,-26.87 229.11,-26.87"/>
<polygon fill="black" stroke="black" points="229.31,-30.37 239.31,-26.87 229.31,-23.37 229.31,-30.37"/>
<text text-anchor="middle" x="175.72" y="-30.67" font-family="Times,serif" font-size="14.00">Encrypted by T1</text>
</g>
<!-- U1&#45;&gt;T1 -->
<g id="edge2" class="edge">
<title>U1&#45;&gt;T1</title>
<path fill="none" stroke="black" d="M247.99,-12.73C239.32,-10.71 230.31,-8.95 221.72,-7.87 181.15,-2.76 170.28,-2.67 129.72,-7.87 124.37,-8.56 118.86,-9.51 113.37,-10.64"/>
<polygon fill="black" stroke="black" points="112.55,-7.23 103.55,-12.82 114.07,-14.07 112.55,-7.23"/>
<text text-anchor="middle" x="175.72" y="-11.67" font-family="Times,serif" font-size="14.00">Decrypted by T1</text>
</g>
</g>
</svg>
