<?xml version="1.0" encoding="UTF-8" standalone="no"?>
<!DOCTYPE svg PUBLIC "-//W3C//DTD SVG 1.1//EN"
 "http://www.w3.org/Graphics/SVG/1.1/DTD/svg11.dtd">
<!-- Generated by graphviz version 2.43.0 (0)
 -->
<!-- Title: g Pages: 1 -->
<svg width="426pt" height="122pt"
 viewBox="0.00 0.00 426.00 121.92" xmlns="http://www.w3.org/2000/svg" xmlns:xlink="http://www.w3.org/1999/xlink">
<g id="graph0" class="graph" transform="scale(1 1) rotate(0) translate(4 117.92)">
<title>g</title>
<polygon fill="white" stroke="transparent" points="-4,4 -4,-117.92 422,-117.92 422,4 -4,4"/>
<!-- T1 -->
<g id="node1" class="node">
<title>T1</title>
<ellipse fill="#7fc97f" stroke="#7fc97f" cx="27" cy="-95.92" rx="27" ry="18"/>
<text text-anchor="middle" x="27" y="-92.22" font-family="Times,serif" font-size="14.00">T1</text>
</g>
<!-- U1 -->
<g id="node2" class="node">
<title>U1</title>
<ellipse fill="#beaed4" stroke="#beaed4" cx="209" cy="-95.92" rx="27" ry="18"/>
<text text-anchor="middle" x="209" y="-92.22" font-family="Times,serif" font-size="14.00">U1</text>
</g>
<!-- T1&#45;&gt;U1 -->
<g id="edge1" class="edge">
<title>T1&#45;&gt;U1</title>
<path fill="none" stroke="black" d="M54.17,-95.92C85.1,-95.92 136.75,-95.92 171.57,-95.92"/>
<polygon fill="black" stroke="black" points="171.79,-99.42 181.79,-95.92 171.79,-92.42 171.79,-99.42"/>
<text text-anchor="middle" x="118" y="-99.72" font-family="Times,serif" font-size="14.00">Encrypted by T1</text>
</g>
<!-- U1&#45;&gt;T1 -->
<g id="edge2" class="edge">
<title>U1&#45;&gt;T1</title>
<path fill="none" stroke="black" d="M187.09,-84.82C179.97,-81.61 171.82,-78.53 164,-76.92 123.96,-68.64 112.04,-68.64 72,-76.92 67.48,-77.85 62.85,-79.27 58.37,-80.93"/>
<polygon fill="black" stroke="black" points="56.83,-77.78 48.91,-84.82 59.49,-84.25 56.83,-77.78"/>
<text text-anchor="middle" x="118" y="-80.72" font-family="Times,serif" font-size="14.00">Decrypted by T1</text>
</g>
<!-- U2 -->
<g id="node4" class="node">
<title>U2</title>
<ellipse fill="#beaed4" stroke="#beaed4" cx="209" cy="-23.92" rx="27" ry="18"/>
<text text-anchor="middle" x="209" y="-20.22" font-family="Times,serif" font-size="14.00">U2</text>
</g>
<!-- U1&#45;&gt;U2 -->
<g id="edge5" class="edge">
<title>U1&#45;&gt;U2</title>
<path fill="none" stroke="black" d="M209,-67.71C209,-62.47 209,-57.24 209,-52"/>
<polygon fill="black" stroke="black" points="205.5,-67.78 209,-77.78 212.5,-67.78 205.5,-67.78"/>
<polygon fill="black" stroke="black" points="212.5,-51.92 209,-41.92 205.5,-51.92 212.5,-51.92"/>
</g>
<!-- T2 -->
<g id="node3" class="node">
<title>T2</title>
<ellipse fill="#7fc97f" stroke="#7fc97f" cx="391" cy="-23.92" rx="27" ry="18"/>
<text text-anchor="middle" x="391" y="-20.22" font-family="Times,serif" font-size="14.00">T2</text>
</g>
<!-- T2&#45;&gt;U2 -->
<g id="edge3" class="edge">
<title>T2&#45;&gt;U2</title>
<path fill="none" stroke="black" d="M369.03,-13.4C361.91,-10.36 353.77,-7.45 346,-5.92 305.88,1.97 294.12,1.97 254,-5.92 249.51,-6.8 244.89,-8.15 240.42,-9.71"/>
<polygon fill="black" stroke="black" points="239.01,-6.51 230.97,-13.4 241.56,-13.03 239.01,-6.51"/>
<text text-anchor="middle" x="300" y="-9.72" font-family="Times,serif" font-size="14.00">Encrypted by T2</text>
</g>
<!-- U2&#45;&gt;T2 -->
<g id="edge4" class="edge">
<title>U2&#45;&gt;T2</title>
<path fill="none" stroke="black" d="M236.17,-23.92C267.1,-23.92 318.75,-23.92 353.57,-23.92"/>
<polygon fill="black" stroke="black" points="353.79,-27.42 363.79,-23.92 353.79,-20.42 353.79,-27.42"/>
<text text-anchor="middle" x="300" y="-27.72" font-family="Times,serif" font-size="14.00">Decrypted by T2</text>
</g>
</g>
</svg>
