<?xml version="1.0" encoding="UTF-8" standalone="no"?>
<!DOCTYPE svg PUBLIC "-//W3C//DTD SVG 1.1//EN"
 "http://www.w3.org/Graphics/SVG/1.1/DTD/svg11.dtd">
<!-- Generated by graphviz version 2.43.0 (0)
 -->
<!-- Title: %3 Pages: 1 -->
<svg width="232pt" height="260pt"
 viewBox="0.00 0.00 231.50 260.00" xmlns="http://www.w3.org/2000/svg" xmlns:xlink="http://www.w3.org/1999/xlink">
<g id="graph0" class="graph" transform="scale(1 1) rotate(0) translate(4 256)">
<title>%3</title>
<polygon fill="white" stroke="transparent" points="-4,4 -4,-256 227.5,-256 227.5,4 -4,4"/>
<!-- folder -->
<g id="node1" class="node">
<title>folder</title>
<polygon fill="none" stroke="black" points="137.5,-252 134.5,-256 113.5,-256 110.5,-252 83.5,-252 83.5,-216 137.5,-216 137.5,-252"/>
<text text-anchor="middle" x="110.5" y="-230.3" font-family="Times,serif" font-size="14.00">folder</text>
</g>
<!-- I.syncthing&#45;enc -->
<g id="node2" class="node">
<title>I.syncthing&#45;enc</title>
<polygon fill="none" stroke="black" points="101,-180 98,-184 77,-184 74,-180 0,-180 0,-144 101,-144 101,-180"/>
<text text-anchor="middle" x="50.5" y="-158.3" font-family="Times,serif" font-size="14.00">I.syncthing&#45;enc</text>
</g>
<!-- folder&#45;&#45;I.syncthing&#45;enc -->
<g id="edge1" class="edge">
<title>folder&#45;&#45;I.syncthing&#45;enc</title>
<path fill="none" stroke="black" d="M95.67,-215.7C86.37,-204.85 74.43,-190.92 65.16,-180.1"/>
</g>
<!-- S.syncthing&#45;enc -->
<g id="node5" class="node">
<title>S.syncthing&#45;enc</title>
<polygon fill="none" stroke="grey" points="223.5,-180 220.5,-184 199.5,-184 196.5,-180 119.5,-180 119.5,-144 223.5,-144 223.5,-180"/>
<text text-anchor="middle" x="171.5" y="-158.3" font-family="Times,serif" font-size="14.00">S.syncthing&#45;enc</text>
</g>
<!-- folder&#45;&#45;S.syncthing&#45;enc -->
<g id="edge4" class="edge">
<title>folder&#45;&#45;S.syncthing&#45;enc</title>
<path fill="none" stroke="grey" d="M125.58,-215.7C135.03,-204.85 147.17,-190.92 156.59,-180.1"/>
</g>
<!-- KF -->
<g id="node3" class="node">
<title>KF</title>
<polygon fill="none" stroke="black" points="77.5,-108 74.5,-112 53.5,-112 50.5,-108 23.5,-108 23.5,-72 77.5,-72 77.5,-108"/>
<text text-anchor="middle" x="50.5" y="-86.3" font-family="Times,serif" font-size="14.00">KF</text>
</g>
<!-- I.syncthing&#45;enc&#45;&#45;KF -->
<g id="edge2" class="edge">
<title>I.syncthing&#45;enc&#45;&#45;KF</title>
<path fill="none" stroke="black" d="M50.5,-143.7C50.5,-132.85 50.5,-118.92 50.5,-108.1"/>
</g>
<!-- EDO9653D... -->
<g id="node4" class="node">
<title>EDO9653D...</title>
<polygon fill="none" stroke="black" points="96.5,-36 4.5,-36 4.5,0 96.5,0 96.5,-36"/>
<text text-anchor="middle" x="50.5" y="-14.3" font-family="Times,serif" font-size="14.00">EDO9653D...</text>
</g>
<!-- KF&#45;&#45;EDO9653D... -->
<g id="edge3" class="edge">
<title>KF&#45;&#45;EDO9653D...</title>
<path fill="none" stroke="black" d="M50.5,-71.7C50.5,-60.85 50.5,-46.92 50.5,-36.1"/>
</g>
<!-- 21 -->
<g id="node6" class="node">
<title>21</title>
<polygon fill="none" stroke="grey" points="198.5,-108 195.5,-112 174.5,-112 171.5,-108 144.5,-108 144.5,-72 198.5,-72 198.5,-108"/>
<text text-anchor="middle" x="171.5" y="-86.3" font-family="Times,serif" font-size="14.00">21</text>
</g>
<!-- S.syncthing&#45;enc&#45;&#45;21 -->
<g id="edge5" class="edge">
<title>S.syncthing&#45;enc&#45;&#45;21</title>
<path fill="none" stroke="grey" d="M171.5,-143.7C171.5,-132.85 171.5,-118.92 171.5,-108.1"/>
</g>
<!-- K3P1VJO0... -->
<g id="node7" class="node">
<title>K3P1VJO0...</title>
<polygon fill="none" stroke="grey" points="216.5,-36 126.5,-36 126.5,0 216.5,0 216.5,-36"/>
<text text-anchor="middle" x="171.5" y="-14.3" font-family="Times,serif" font-size="14.00">K3P1VJO0...</text>
</g>
<!-- 21&#45;&#45;K3P1VJO0... -->
<g id="edge6" class="edge">
<title>21&#45;&#45;K3P1VJO0...</title>
<path fill="none" stroke="grey" d="M171.5,-71.7C171.5,-60.85 171.5,-46.92 171.5,-36.1"/>
</g>
</g>
</svg>
