<?xml version="1.0" encoding="UTF-8" standalone="no"?>
<!DOCTYPE svg PUBLIC "-//W3C//DTD SVG 1.1//EN"
 "http://www.w3.org/Graphics/SVG/1.1/DTD/svg11.dtd">
<!-- Generated by graphviz version 2.43.0 (0)
 -->
<!-- Title: g Pages: 1 -->
<svg width="428pt" height="51pt"
 viewBox="0.00 0.00 428.00 51.27" xmlns="http://www.w3.org/2000/svg" xmlns:xlink="http://www.w3.org/1999/xlink">
<g id="graph0" class="graph" transform="scale(1 1) rotate(0) translate(4 47.27)">
<title>g</title>
<polygon fill="white" stroke="transparent" points="-4,4 -4,-47.27 424,-47.27 424,4 -4,4"/>
<!-- T1 -->
<g id="node1" class="node">
<title>T1</title>
<ellipse fill="#7fc97f" stroke="#7fc97f" cx="27" cy="-25.27" rx="27" ry="18"/>
<text text-anchor="middle" x="27" y="-21.57" font-family="Times,serif" font-size="14.00">T1</text>
</g>
<!-- U1 -->
<g id="node2" class="node">
<title>U1</title>
<ellipse fill="#beaed4" stroke="#beaed4" cx="210" cy="-25.27" rx="27" ry="18"/>
<text text-anchor="middle" x="210" y="-21.57" font-family="Times,serif" font-size="14.00">U1</text>
</g>
<!-- T1&#45;&gt;U1 -->
<g id="edge1" class="edge">
<title>T1&#45;&gt;U1</title>
<path fill="none" stroke="black" d="M54.32,-25.27C85.51,-25.27 137.65,-25.27 172.67,-25.27"/>
<polygon fill="black" stroke="black" points="172.94,-28.77 182.94,-25.27 172.94,-21.77 172.94,-28.77"/>
<text text-anchor="middle" x="118.5" y="-29.07" font-family="Times,serif" font-size="14.00">Encrypted by T1</text>
</g>
<!-- U1&#45;&gt;T1 -->
<g id="edge2" class="edge">
<title>U1&#45;&gt;T1</title>
<path fill="none" stroke="black" d="M188.09,-14.18C180.97,-10.97 172.82,-7.89 165,-6.27 124.52,2.09 112.48,2.09 72,-6.27 67.48,-7.21 62.85,-8.63 58.37,-10.29"/>
<polygon fill="black" stroke="black" points="56.83,-7.14 48.91,-14.18 59.49,-13.61 56.83,-7.14"/>
<text text-anchor="middle" x="118.5" y="-10.07" font-family="Times,serif" font-size="14.00">Decrypted by T1</text>
</g>
<!-- T2 -->
<g id="node3" class="node">
<title>T2</title>
<ellipse fill="#7fc97f" stroke="#7fc97f" cx="393" cy="-25.27" rx="27" ry="18"/>
<text text-anchor="middle" x="393" y="-21.57" font-family="Times,serif" font-size="14.00">T2</text>
</g>
<!-- U1&#45;&gt;T2 -->
<g id="edge3" class="edge">
<title>U1&#45;&gt;T2</title>
<path fill="none" stroke="black" d="M237.32,-25.27C268.51,-25.27 320.65,-25.27 355.67,-25.27"/>
<polygon fill="black" stroke="black" points="355.94,-28.77 365.94,-25.27 355.94,-21.77 355.94,-28.77"/>
<text text-anchor="middle" x="301.5" y="-29.07" font-family="Times,serif" font-size="14.00">Decrypted by T2</text>
</g>
<!-- T2&#45;&gt;U1 -->
<g id="edge4" class="edge">
<title>T2&#45;&gt;U1</title>
<path fill="none" stroke="black" d="M371.09,-14.18C363.97,-10.97 355.82,-7.89 348,-6.27 307.52,2.09 295.48,2.09 255,-6.27 250.48,-7.21 245.85,-8.63 241.37,-10.29"/>
<polygon fill="black" stroke="black" points="239.83,-7.14 231.91,-14.18 242.49,-13.61 239.83,-7.14"/>
<text text-anchor="middle" x="301.5" y="-10.07" font-family="Times,serif" font-size="14.00">Encrypted by T2</text>
</g>
</g>
</svg>
