<?xml version="1.0" encoding="UTF-8" standalone="no"?>
<!DOCTYPE svg PUBLIC "-//W3C//DTD SVG 1.1//EN"
 "http://www.w3.org/Graphics/SVG/1.1/DTD/svg11.dtd">
<!-- Generated by graphviz version 2.40.1 (20161225.0304)
 -->
<!-- Title: g Pages: 1 -->
<svg width="241pt" height="193pt"
 viewBox="0.00 0.00 241.00 193.00" xmlns="http://www.w3.org/2000/svg" xmlns:xlink="http://www.w3.org/1999/xlink">
<g id="graph0" class="graph" transform="scale(1 1) rotate(0) translate(4 189)">
<title>g</title>
<polygon fill="#ffffff" stroke="transparent" points="-4,4 -4,-189 237,-189 237,4 -4,4"/>
<!-- fileinfo -->
<g id="node1" class="node">
<title>fileinfo</title>
<polygon fill="none" stroke="#000000" points="0,-23.5 0,-184.5 71,-184.5 71,-23.5 0,-23.5"/>
<text text-anchor="middle" x="35.5" y="-169.3" font-family="Times,serif" font-size="14.00" fill="#000000">name</text>
<polyline fill="none" stroke="#000000" points="0,-161.5 71,-161.5 "/>
<text text-anchor="middle" x="35.5" y="-146.3" font-family="Times,serif" font-size="14.00" fill="#000000">type</text>
<polyline fill="none" stroke="#000000" points="0,-138.5 71,-138.5 "/>
<text text-anchor="middle" x="35.5" y="-123.3" font-family="Times,serif" font-size="14.00" fill="#000000">size</text>
<polyline fill="none" stroke="#000000" points="0,-115.5 71,-115.5 "/>
<text text-anchor="middle" x="35.5" y="-100.3" font-family="Times,serif" font-size="14.00" fill="#000000">modified</text>
<polyline fill="none" stroke="#000000" points="0,-92.5 71,-92.5 "/>
<text text-anchor="middle" x="35.5" y="-77.3" font-family="Times,serif" font-size="14.00" fill="#000000">...</text>
<polyline fill="none" stroke="#000000" points="0,-69.5 71,-69.5 "/>
<text text-anchor="middle" x="35.5" y="-54.3" font-family="Times,serif" font-size="14.00" fill="#000000">blocks</text>
<polyline fill="none" stroke="#000000" points="0,-46.5 71,-46.5 "/>
<text text-anchor="middle" x="35.5" y="-31.3" font-family="Times,serif" font-size="14.00" fill="#000000">block size</text>
</g>
<!-- blocks -->
<g id="node2" class="node">
<title>blocks</title>
<polygon fill="none" stroke="#000000" points="107,-.5 107,-69.5 233,-69.5 233,-.5 107,-.5"/>
<text text-anchor="middle" x="130.5" y="-54.3" font-family="Times,serif" font-size="14.00" fill="#000000">offset</text>
<polyline fill="none" stroke="#000000" points="154,-46.5 154,-69.5 "/>
<text text-anchor="middle" x="173" y="-54.3" font-family="Times,serif" font-size="14.00" fill="#000000">size</text>
<polyline fill="none" stroke="#000000" points="192,-46.5 192,-69.5 "/>
<text text-anchor="middle" x="212.5" y="-54.3" font-family="Times,serif" font-size="14.00" fill="#000000">hash</text>
<polyline fill="none" stroke="#000000" points="107,-46.5 233,-46.5 "/>
<text text-anchor="middle" x="130.5" y="-31.3" font-family="Times,serif" font-size="14.00" fill="#000000">offset</text>
<polyline fill="none" stroke="#000000" points="154,-23.5 154,-46.5 "/>
<text text-anchor="middle" x="173" y="-31.3" font-family="Times,serif" font-size="14.00" fill="#000000">size</text>
<polyline fill="none" stroke="#000000" points="192,-23.5 192,-46.5 "/>
<text text-anchor="middle" x="212.5" y="-31.3" font-family="Times,serif" font-size="14.00" fill="#000000">hash</text>
<polyline fill="none" stroke="#000000" points="107,-23.5 233,-23.5 "/>
<text text-anchor="middle" x="170" y="-8.3" font-family="Times,serif" font-size="14.00" fill="#000000">...</text>
</g>
<!-- fileinfo&#45;&gt;blocks -->
<g id="edge1" class="edge">
<title>fileinfo:b&#45;&gt;blocks:a</title>
<path fill="none" stroke="#000000" d="M71,-58C83,-58 88.25,-58 96.875,-58"/>
<polygon fill="#000000" stroke="#000000" points="97,-61.5001 107,-58 97,-54.5001 97,-61.5001"/>
</g>
</g>
</svg>
