<?xml version="1.0" encoding="UTF-8" standalone="no"?>
<!DOCTYPE svg PUBLIC "-//W3C//DTD SVG 1.1//EN"
 "http://www.w3.org/Graphics/SVG/1.1/DTD/svg11.dtd">
<!-- Generated by graphviz version 2.40.1 (20161225.0304)
 -->
<!-- Title: g Pages: 1 -->
<svg width="363pt" height="62pt"
 viewBox="0.00 0.00 363.27 61.74" xmlns="http://www.w3.org/2000/svg" xmlns:xlink="http://www.w3.org/1999/xlink">
<g id="graph0" class="graph" transform="scale(1 1) rotate(0) translate(4 57.7401)">
<title>g</title>
<polygon fill="#ffffff" stroke="transparent" points="-4,4 -4,-57.7401 359.2742,-57.7401 359.2742,4 -4,4"/>
<!-- T1 -->
<g id="node1" class="node">
<title>T1</title>
<ellipse fill="#7fc97f" stroke="#7fc97f" cx="55.8614" cy="-26.8701" rx="55.7232" ry="26.7407"/>
<text text-anchor="middle" x="55.8614" y="-30.6701" font-family="Times,serif" font-size="14.00" fill="#000000">T1</text>
<text text-anchor="middle" x="55.8614" y="-15.6701" font-family="Times,serif" font-size="14.00" fill="#000000">(Clear text)</text>
</g>
<!-- U1 -->
<g id="node2" class="node">
<title>U1</title>
<ellipse fill="#beaed4" stroke="#beaed4" cx="297.9985" cy="-26.8701" rx="57.0522" ry="26.7407"/>
<text text-anchor="middle" x="297.9985" y="-30.6701" font-family="Times,serif" font-size="14.00" fill="#000000">U1</text>
<text text-anchor="middle" x="297.9985" y="-15.6701" font-family="Times,serif" font-size="14.00" fill="#000000">(Encrypted)</text>
</g>
<!-- T1&#45;&gt;U1 -->
<g id="edge1" class="edge">
<title>T1&#45;&gt;U1</title>
<path fill="none" stroke="#000000" d="M112.0212,-26.8701C147.2665,-26.8701 192.9319,-26.8701 230.1914,-26.8701"/>
<polygon fill="#000000" stroke="#000000" points="230.4619,-30.3702 240.4619,-26.8701 230.4619,-23.3702 230.4619,-30.3702"/>
<text text-anchor="middle" x="176.2229" y="-30.6701" font-family="Times,serif" font-size="14.00" fill="#000000">Encrypted by T1</text>
</g>
<!-- U1&#45;&gt;T1 -->
<g id="edge2" class="edge">
<title>U1&#45;&gt;T1</title>
<path fill="none" stroke="#000000" d="M248.9304,-12.6338C240.2683,-10.6531 231.2833,-8.9337 222.7229,-7.8701 181.705,-2.7734 170.7291,-2.6803 129.7229,-7.8701 124.3864,-8.5454 118.8836,-9.4849 113.4017,-10.5877"/>
<polygon fill="#000000" stroke="#000000" points="112.6209,-7.1756 103.5971,-12.7273 114.1134,-14.0147 112.6209,-7.1756"/>
<text text-anchor="middle" x="176.2229" y="-11.6701" font-family="Times,serif" font-size="14.00" fill="#000000">Decrypted by T1</text>
</g>
</g>
</svg>
