<?xml version="1.0" encoding="UTF-8" standalone="no"?>
<!DOCTYPE svg PUBLIC "-//W3C//DTD SVG 1.1//EN"
 "http://www.w3.org/Graphics/SVG/1.1/DTD/svg11.dtd">
<!-- Generated by graphviz version 2.40.1 (20161225.0304)
 -->
<!-- Title: %3 Pages: 1 -->
<svg width="232pt" height="260pt"
 viewBox="0.00 0.00 231.50 260.00" xmlns="http://www.w3.org/2000/svg" xmlns:xlink="http://www.w3.org/1999/xlink">
<g id="graph0" class="graph" transform="scale(1 1) rotate(0) translate(4 256)">
<title>%3</title>
<polygon fill="#ffffff" stroke="transparent" points="-4,4 -4,-256 227.5,-256 227.5,4 -4,4"/>
<!-- folder -->
<g id="node1" class="node">
<title>folder</title>
<polygon fill="none" stroke="#000000" points="137.5,-252 134.5,-256 113.5,-256 110.5,-252 83.5,-252 83.5,-216 137.5,-216 137.5,-252"/>
<text text-anchor="middle" x="110.5" y="-230.3" font-family="Times,serif" font-size="14.00" fill="#000000">folder</text>
</g>
<!-- I.syncthing&#45;enc -->
<g id="node2" class="node">
<title>I.syncthing&#45;enc</title>
<polygon fill="none" stroke="#000000" points="101,-180 98,-184 77,-184 74,-180 0,-180 0,-144 101,-144 101,-180"/>
<text text-anchor="middle" x="50.5" y="-158.3" font-family="Times,serif" font-size="14.00" fill="#000000">I.syncthing&#45;enc</text>
</g>
<!-- folder&#45;&#45;I.syncthing&#45;enc -->
<g id="edge1" class="edge">
<title>folder&#45;&#45;I.syncthing&#45;enc</title>
<path fill="none" stroke="#000000" d="M95.3595,-215.8314C86.3334,-205 74.9063,-191.2876 65.8444,-180.4133"/>
</g>
<!-- S.syncthing&#45;enc -->
<g id="node5" class="node">
<title>S.syncthing&#45;enc</title>
<polygon fill="none" stroke="#c0c0c0" points="223.5,-180 220.5,-184 199.5,-184 196.5,-180 119.5,-180 119.5,-144 223.5,-144 223.5,-180"/>
<text text-anchor="middle" x="171.5" y="-158.3" font-family="Times,serif" font-size="14.00" fill="#000000">S.syncthing&#45;enc</text>
</g>
<!-- folder&#45;&#45;S.syncthing&#45;enc -->
<g id="edge4" class="edge">
<title>folder&#45;&#45;S.syncthing&#45;enc</title>
<path fill="none" stroke="#c0c0c0" d="M125.8929,-215.8314C135.0694,-205 146.6869,-191.2876 155.8999,-180.4133"/>
</g>
<!-- KF -->
<g id="node3" class="node">
<title>KF</title>
<polygon fill="none" stroke="#000000" points="77.5,-108 74.5,-112 53.5,-112 50.5,-108 23.5,-108 23.5,-72 77.5,-72 77.5,-108"/>
<text text-anchor="middle" x="50.5" y="-86.3" font-family="Times,serif" font-size="14.00" fill="#000000">KF</text>
</g>
<!-- I.syncthing&#45;enc&#45;&#45;KF -->
<g id="edge2" class="edge">
<title>I.syncthing&#45;enc&#45;&#45;KF</title>
<path fill="none" stroke="#000000" d="M50.5,-143.8314C50.5,-133 50.5,-119.2876 50.5,-108.4133"/>
</g>
<!-- EDO9653D... -->
<g id="node4" class="node">
<title>EDO9653D...</title>
<polygon fill="none" stroke="#000000" points="96.5,-36 4.5,-36 4.5,0 96.5,0 96.5,-36"/>
<text text-anchor="middle" x="50.5" y="-14.3" font-family="Times,serif" font-size="14.00" fill="#000000">EDO9653D...</text>
</g>
<!-- KF&#45;&#45;EDO9653D... -->
<g id="edge3" class="edge">
<title>KF&#45;&#45;EDO9653D...</title>
<path fill="none" stroke="#000000" d="M50.5,-71.8314C50.5,-61 50.5,-47.2876 50.5,-36.4133"/>
</g>
<!-- 21 -->
<g id="node6" class="node">
<title>21</title>
<polygon fill="none" stroke="#c0c0c0" points="198.5,-108 195.5,-112 174.5,-112 171.5,-108 144.5,-108 144.5,-72 198.5,-72 198.5,-108"/>
<text text-anchor="middle" x="171.5" y="-86.3" font-family="Times,serif" font-size="14.00" fill="#000000">21</text>
</g>
<!-- S.syncthing&#45;enc&#45;&#45;21 -->
<g id="edge5" class="edge">
<title>S.syncthing&#45;enc&#45;&#45;21</title>
<path fill="none" stroke="#c0c0c0" d="M171.5,-143.8314C171.5,-133 171.5,-119.2876 171.5,-108.4133"/>
</g>
<!-- K3P1VJO0... -->
<g id="node7" class="node">
<title>K3P1VJO0...</title>
<polygon fill="none" stroke="#c0c0c0" points="216.5,-36 126.5,-36 126.5,0 216.5,0 216.5,-36"/>
<text text-anchor="middle" x="171.5" y="-14.3" font-family="Times,serif" font-size="14.00" fill="#000000">K3P1VJO0...</text>
</g>
<!-- 21&#45;&#45;K3P1VJO0... -->
<g id="edge6" class="edge">
<title>21&#45;&#45;K3P1VJO0...</title>
<path fill="none" stroke="#c0c0c0" d="M171.5,-71.8314C171.5,-61 171.5,-47.2876 171.5,-36.4133"/>
</g>
</g>
</svg>
