<?xml version="1.0" encoding="UTF-8" standalone="no"?>
<!DOCTYPE svg PUBLIC "-//W3C//DTD SVG 1.1//EN"
 "http://www.w3.org/Graphics/SVG/1.1/DTD/svg11.dtd">
<!-- Generated by graphviz version 2.40.1 (20161225.0304)
 -->
<!-- Title: g Pages: 1 -->
<svg width="428pt" height="122pt"
 viewBox="0.00 0.00 428.00 121.86" xmlns="http://www.w3.org/2000/svg" xmlns:xlink="http://www.w3.org/1999/xlink">
<g id="graph0" class="graph" transform="scale(1 1) rotate(0) translate(4 117.8623)">
<title>g</title>
<polygon fill="#ffffff" stroke="transparent" points="-4,4 -4,-117.8623 424,-117.8623 424,4 -4,4"/>
<!-- T1 -->
<g id="node1" class="node">
<title>T1</title>
<ellipse fill="#7fc97f" stroke="#7fc97f" cx="27" cy="-95.8623" rx="27" ry="18"/>
<text text-anchor="middle" x="27" y="-92.1623" font-family="Times,serif" font-size="14.00" fill="#000000">T1</text>
</g>
<!-- U1 -->
<g id="node2" class="node">
<title>U1</title>
<ellipse fill="#beaed4" stroke="#beaed4" cx="210" cy="-95.8623" rx="27" ry="18"/>
<text text-anchor="middle" x="210" y="-92.1623" font-family="Times,serif" font-size="14.00" fill="#000000">U1</text>
</g>
<!-- T1&#45;&gt;U1 -->
<g id="edge1" class="edge">
<title>T1&#45;&gt;U1</title>
<path fill="none" stroke="#000000" d="M54.0023,-95.8623C85.3578,-95.8623 137.2733,-95.8623 172.5235,-95.8623"/>
<polygon fill="#000000" stroke="#000000" points="172.887,-99.3624 182.8869,-95.8623 172.8869,-92.3624 172.887,-99.3624"/>
<text text-anchor="middle" x="118.5" y="-99.6623" font-family="Times,serif" font-size="14.00" fill="#000000">Encrypted by T1</text>
</g>
<!-- U1&#45;&gt;T1 -->
<g id="edge2" class="edge">
<title>U1&#45;&gt;T1</title>
<path fill="none" stroke="#000000" d="M188.5889,-84.7672C181.3022,-81.5535 172.9792,-78.4778 165,-76.8623 124.4886,-68.6605 112.5114,-68.6605 72,-76.8623 67.2623,-77.8215 62.4035,-79.2955 57.7123,-81.0075"/>
<polygon fill="#000000" stroke="#000000" points="56.3706,-77.7746 48.4111,-84.7672 58.994,-84.2645 56.3706,-77.7746"/>
<text text-anchor="middle" x="118.5" y="-80.6623" font-family="Times,serif" font-size="14.00" fill="#000000">Decrypted by T1</text>
</g>
<!-- U2 -->
<g id="node4" class="node">
<title>U2</title>
<ellipse fill="#beaed4" stroke="#beaed4" cx="210" cy="-23.8623" rx="27" ry="18"/>
<text text-anchor="middle" x="210" y="-20.1623" font-family="Times,serif" font-size="14.00" fill="#000000">U2</text>
</g>
<!-- U1&#45;&gt;U2 -->
<g id="edge5" class="edge">
<title>U1&#45;&gt;U2</title>
<path fill="none" stroke="#000000" d="M210,-67.6538C210,-62.4184 210,-57.1831 210,-51.9478"/>
<polygon fill="#000000" stroke="#000000" points="206.5001,-67.7217 210,-77.7217 213.5001,-67.7217 206.5001,-67.7217"/>
<polygon fill="#000000" stroke="#000000" points="213.5001,-51.8623 210,-41.8623 206.5001,-51.8624 213.5001,-51.8623"/>
</g>
<!-- T2 -->
<g id="node3" class="node">
<title>T2</title>
<ellipse fill="#7fc97f" stroke="#7fc97f" cx="393" cy="-23.8623" rx="27" ry="18"/>
<text text-anchor="middle" x="393" y="-20.1623" font-family="Times,serif" font-size="14.00" fill="#000000">T2</text>
</g>
<!-- T2&#45;&gt;U2 -->
<g id="edge3" class="edge">
<title>T2&#45;&gt;U2</title>
<path fill="none" stroke="#000000" d="M371.0766,-13.1576C363.897,-10.1823 355.7667,-7.3581 348,-5.8623 307.4125,1.9541 295.5875,1.9541 255,-5.8623 250.5099,-6.7271 245.8982,-8.0358 241.419,-9.561"/>
<polygon fill="#000000" stroke="#000000" points="240.0353,-6.3424 231.9234,-13.1576 242.5148,-12.8886 240.0353,-6.3424"/>
<text text-anchor="middle" x="301.5" y="-9.6623" font-family="Times,serif" font-size="14.00" fill="#000000">Encrypted by T2</text>
</g>
<!-- U2&#45;&gt;T2 -->
<g id="edge4" class="edge">
<title>U2&#45;&gt;T2</title>
<path fill="none" stroke="#000000" d="M237.0023,-23.8623C268.3578,-23.8623 320.2733,-23.8623 355.5235,-23.8623"/>
<polygon fill="#000000" stroke="#000000" points="355.887,-27.3624 365.8869,-23.8623 355.8869,-20.3624 355.887,-27.3624"/>
<text text-anchor="middle" x="301.5" y="-27.6623" font-family="Times,serif" font-size="14.00" fill="#000000">Decrypted by T2</text>
</g>
</g>
</svg>
