<?xml version="1.0" encoding="UTF-8" standalone="no"?>
<!DOCTYPE svg PUBLIC "-//W3C//DTD SVG 1.1//EN"
 "http://www.w3.org/Graphics/SVG/1.1/DTD/svg11.dtd">
<!-- Generated by graphviz version 2.40.1 (20161225.0304)
 -->
<!-- Title: %3 Pages: 1 -->
<svg width="112pt" height="260pt"
 viewBox="0.00 0.00 112.00 260.00" xmlns="http://www.w3.org/2000/svg" xmlns:xlink="http://www.w3.org/1999/xlink">
<g id="graph0" class="graph" transform="scale(1 1) rotate(0) translate(4 256)">
<title>%3</title>
<polygon fill="#ffffff" stroke="transparent" points="-4,4 -4,-256 108,-256 108,4 -4,4"/>
<!-- folder -->
<g id="node1" class="node">
<title>folder</title>
<polygon fill="none" stroke="#000000" points="79,-252 76,-256 55,-256 52,-252 25,-252 25,-216 79,-216 79,-252"/>
<text text-anchor="middle" x="52" y="-230.3" font-family="Times,serif" font-size="14.00" fill="#000000">folder</text>
</g>
<!-- S.syncthing&#45;enc -->
<g id="node2" class="node">
<title>S.syncthing&#45;enc</title>
<polygon fill="none" stroke="#000000" points="104,-180 101,-184 80,-184 77,-180 0,-180 0,-144 104,-144 104,-180"/>
<text text-anchor="middle" x="52" y="-158.3" font-family="Times,serif" font-size="14.00" fill="#000000">S.syncthing&#45;enc</text>
</g>
<!-- folder&#45;&#45;S.syncthing&#45;enc -->
<g id="edge1" class="edge">
<title>folder&#45;&#45;S.syncthing&#45;enc</title>
<path fill="none" stroke="#000000" d="M52,-215.8314C52,-205 52,-191.2876 52,-180.4133"/>
</g>
<!-- 21 -->
<g id="node3" class="node">
<title>21</title>
<polygon fill="none" stroke="#000000" points="79,-108 76,-112 55,-112 52,-108 25,-108 25,-72 79,-72 79,-108"/>
<text text-anchor="middle" x="52" y="-86.3" font-family="Times,serif" font-size="14.00" fill="#000000">21</text>
</g>
<!-- S.syncthing&#45;enc&#45;&#45;21 -->
<g id="edge2" class="edge">
<title>S.syncthing&#45;enc&#45;&#45;21</title>
<path fill="none" stroke="#000000" d="M52,-143.8314C52,-133 52,-119.2876 52,-108.4133"/>
</g>
<!-- K3P1VJO0... -->
<g id="node4" class="node">
<title>K3P1VJO0...</title>
<polygon fill="none" stroke="#000000" points="97,-36 7,-36 7,0 97,0 97,-36"/>
<text text-anchor="middle" x="52" y="-14.3" font-family="Times,serif" font-size="14.00" fill="#000000">K3P1VJO0...</text>
</g>
<!-- 21&#45;&#45;K3P1VJO0... -->
<g id="edge3" class="edge">
<title>21&#45;&#45;K3P1VJO0...</title>
<path fill="none" stroke="#000000" d="M52,-71.8314C52,-61 52,-47.2876 52,-36.4133"/>
</g>
</g>
</svg>
