<?xml version="1.0" encoding="UTF-8" standalone="no"?>
<!DOCTYPE svg PUBLIC "-//W3C//DTD SVG 1.1//EN"
 "http://www.w3.org/Graphics/SVG/1.1/DTD/svg11.dtd">
<!-- Generated by graphviz version 2.43.0 (0)
 -->
<!-- Title: g Pages: 1 -->
<svg width="498pt" height="170pt"
 viewBox="0.00 0.00 498.00 170.00" xmlns="http://www.w3.org/2000/svg" xmlns:xlink="http://www.w3.org/1999/xlink">
<g id="graph0" class="graph" transform="scale(1 1) rotate(0) translate(4 166)">
<title>g</title>
<polygon fill="white" stroke="transparent" points="-4,4 -4,-166 494,-166 494,4 -4,4"/>
<!-- fileinfo -->
<g id="node1" class="node">
<title>fileinfo</title>
<polygon fill="none" stroke="black" points="0,-0.5 0,-161.5 122,-161.5 122,-0.5 0,-0.5"/>
<text text-anchor="middle" x="61" y="-146.3" font-family="Times,serif" font-size="14.00">encrypted name</text>
<polyline fill="none" stroke="black" points="0,-138.5 122,-138.5 "/>
<text text-anchor="middle" x="61" y="-123.3" font-family="Times,serif" font-size="14.00">...</text>
<polyline fill="none" stroke="black" points="0,-115.5 122,-115.5 "/>
<text text-anchor="middle" x="61" y="-100.3" font-family="Times,serif" font-size="14.00">adjusted size</text>
<polyline fill="none" stroke="black" points="0,-92.5 122,-92.5 "/>
<text text-anchor="middle" x="61" y="-77.3" font-family="Times,serif" font-size="14.00">...</text>
<polyline fill="none" stroke="black" points="0,-69.5 122,-69.5 "/>
<text text-anchor="middle" x="61" y="-54.3" font-family="Times,serif" font-size="14.00">encrypted blocks</text>
<polyline fill="none" stroke="black" points="0,-46.5 122,-46.5 "/>
<text text-anchor="middle" x="61" y="-31.3" font-family="Times,serif" font-size="14.00">adjusted block size</text>
<polyline fill="none" stroke="black" points="0,-23.5 122,-23.5 "/>
<text text-anchor="middle" x="61" y="-8.3" font-family="Times,serif" font-size="14.00">encrypted metadata</text>
</g>
<!-- blocks -->
<g id="node2" class="node">
<title>blocks</title>
<polygon fill="none" stroke="black" points="158,-0.5 158,-69.5 490,-69.5 490,-0.5 158,-0.5"/>
<text text-anchor="middle" x="224" y="-54.3" font-family="Times,serif" font-size="14.00">offset + n * overhead</text>
<polyline fill="none" stroke="black" points="290,-46.5 290,-69.5 "/>
<text text-anchor="middle" x="341" y="-54.3" font-family="Times,serif" font-size="14.00">size + overhead</text>
<polyline fill="none" stroke="black" points="392,-46.5 392,-69.5 "/>
<text text-anchor="middle" x="441" y="-54.3" font-family="Times,serif" font-size="14.00">encrypted hash</text>
<polyline fill="none" stroke="black" points="158,-46.5 490,-46.5 "/>
<text text-anchor="middle" x="224" y="-31.3" font-family="Times,serif" font-size="14.00">offset + n * overhead</text>
<polyline fill="none" stroke="black" points="290,-23.5 290,-46.5 "/>
<text text-anchor="middle" x="341" y="-31.3" font-family="Times,serif" font-size="14.00">size + overhead</text>
<polyline fill="none" stroke="black" points="392,-23.5 392,-46.5 "/>
<text text-anchor="middle" x="441" y="-31.3" font-family="Times,serif" font-size="14.00">encrypted hash</text>
<polyline fill="none" stroke="black" points="158,-23.5 490,-23.5 "/>
<text text-anchor="middle" x="324" y="-8.3" font-family="Times,serif" font-size="14.00">...</text>
</g>
<!-- fileinfo&#45;&gt;blocks -->
<g id="edge1" class="edge">
<title>fileinfo:b&#45;&gt;blocks:a</title>
<path fill="none" stroke="black" d="M122,-58C134,-58 139.25,-58 147.88,-58"/>
<polygon fill="black" stroke="black" points="148,-61.5 158,-58 148,-54.5 148,-61.5"/>
</g>
</g>
</svg>
