<?xml version="1.0" encoding="UTF-8" standalone="no"?>
<!DOCTYPE svg PUBLIC "-//W3C//DTD SVG 1.1//EN"
 "http://www.w3.org/Graphics/SVG/1.1/DTD/svg11.dtd">
<!-- Generated by graphviz version 2.43.0 (0)
 -->
<!-- Title: g Pages: 1 -->
<svg width="502pt" height="170pt"
 viewBox="0.00 0.00 502.00 170.00" xmlns="http://www.w3.org/2000/svg" xmlns:xlink="http://www.w3.org/1999/xlink">
<g id="graph0" class="graph" transform="scale(1 1) rotate(0) translate(4 166)">
<title>g</title>
<polygon fill="white" stroke="transparent" points="-4,4 -4,-166 498,-166 498,4 -4,4"/>
<!-- fileinfo -->
<g id="node1" class="node">
<title>fileinfo</title>
<polygon fill="none" stroke="black" points="0,-0.5 0,-161.5 123,-161.5 123,-0.5 0,-0.5"/>
<text text-anchor="middle" x="61.5" y="-146.3" font-family="Times,serif" font-size="14.00">encrypted name</text>
<polyline fill="none" stroke="black" points="0,-138.5 123,-138.5 "/>
<text text-anchor="middle" x="61.5" y="-123.3" font-family="Times,serif" font-size="14.00">...</text>
<polyline fill="none" stroke="black" points="0,-115.5 123,-115.5 "/>
<text text-anchor="middle" x="61.5" y="-100.3" font-family="Times,serif" font-size="14.00">adjusted size</text>
<polyline fill="none" stroke="black" points="0,-92.5 123,-92.5 "/>
<text text-anchor="middle" x="61.5" y="-77.3" font-family="Times,serif" font-size="14.00">...</text>
<polyline fill="none" stroke="black" points="0,-69.5 123,-69.5 "/>
<text text-anchor="middle" x="61.5" y="-54.3" font-family="Times,serif" font-size="14.00">encrypted blocks</text>
<polyline fill="none" stroke="black" points="0,-46.5 123,-46.5 "/>
<text text-anchor="middle" x="61.5" y="-31.3" font-family="Times,serif" font-size="14.00">adjusted block size</text>
<polyline fill="none" stroke="black" points="0,-23.5 123,-23.5 "/>
<text text-anchor="middle" x="61.5" y="-8.3" font-family="Times,serif" font-size="14.00">encrypted metadata</text>
</g>
<!-- blocks -->
<g id="node2" class="node">
<title>blocks</title>
<polygon fill="none" stroke="black" points="159,-0.5 159,-69.5 494,-69.5 494,-0.5 159,-0.5"/>
<text text-anchor="middle" x="226" y="-54.3" font-family="Times,serif" font-size="14.00">offset + n * overhead</text>
<polyline fill="none" stroke="black" points="293,-46.5 293,-69.5 "/>
<text text-anchor="middle" x="344.5" y="-54.3" font-family="Times,serif" font-size="14.00">size + overhead</text>
<polyline fill="none" stroke="black" points="396,-46.5 396,-69.5 "/>
<text text-anchor="middle" x="445" y="-54.3" font-family="Times,serif" font-size="14.00">encrypted hash</text>
<polyline fill="none" stroke="black" points="159,-46.5 494,-46.5 "/>
<text text-anchor="middle" x="226" y="-31.3" font-family="Times,serif" font-size="14.00">offset + n * overhead</text>
<polyline fill="none" stroke="black" points="293,-23.5 293,-46.5 "/>
<text text-anchor="middle" x="344.5" y="-31.3" font-family="Times,serif" font-size="14.00">size + overhead</text>
<polyline fill="none" stroke="black" points="396,-23.5 396,-46.5 "/>
<text text-anchor="middle" x="445" y="-31.3" font-family="Times,serif" font-size="14.00">encrypted hash</text>
<polyline fill="none" stroke="black" points="159,-23.5 494,-23.5 "/>
<text text-anchor="middle" x="326.5" y="-8.3" font-family="Times,serif" font-size="14.00">...</text>
</g>
<!-- fileinfo&#45;&gt;blocks -->
<g id="edge1" class="edge">
<title>fileinfo:b&#45;&gt;blocks:a</title>
<path fill="none" stroke="black" d="M123,-58C135,-58 140.25,-58 148.88,-58"/>
<polygon fill="black" stroke="black" points="149,-61.5 159,-58 149,-54.5 149,-61.5"/>
</g>
</g>
</svg>
