<?xml version="1.0" encoding="UTF-8" standalone="no"?>
<!DOCTYPE svg PUBLIC "-//W3C//DTD SVG 1.1//EN"
 "http://www.w3.org/Graphics/SVG/1.1/DTD/svg11.dtd">
<!-- Generated by graphviz version 2.43.0 (0)
 -->
<!-- Title: g Pages: 1 -->
<svg width="415pt" height="78pt"
 viewBox="0.00 0.00 415.00 78.00" xmlns="http://www.w3.org/2000/svg" xmlns:xlink="http://www.w3.org/1999/xlink">
<g id="graph0" class="graph" transform="scale(1 1) rotate(0) translate(4 74)">
<title>g</title>
<polygon fill="white" stroke="transparent" points="-4,4 -4,-74 411,-74 411,4 -4,4"/>
<!-- u -->
<g id="node1" class="node">
<title>u</title>
<polygon fill="none" stroke="black" points="0,-17 0,-53 120,-53 120,-17 0,-17"/>
<text text-anchor="middle" x="60" y="-31.3" font-family="Times,serif" font-size="14.00">plaintext (variable)</text>
</g>
<!-- e -->
<g id="node2" class="node">
<title>e</title>
<polygon fill="none" stroke="black" points="280,-0.5 280,-69.5 407,-69.5 407,-0.5 280,-0.5"/>
<text text-anchor="middle" x="343.5" y="-54.3" font-family="Times,serif" font-size="14.00">nonce (24 B)</text>
<polyline fill="none" stroke="black" points="280,-46.5 407,-46.5 "/>
<text text-anchor="middle" x="343.5" y="-31.3" font-family="Times,serif" font-size="14.00">ciphertext (variable)</text>
<polyline fill="none" stroke="black" points="280,-23.5 407,-23.5 "/>
<text text-anchor="middle" x="343.5" y="-8.3" font-family="Times,serif" font-size="14.00">tag (16 B)</text>
</g>
<!-- u&#45;&gt;e -->
<g id="edge1" class="edge">
<title>u:h&#45;&gt;e:h</title>
<path fill="none" stroke="black" d="M120.23,-35C161.68,-35 218.33,-35 269.79,-35"/>
<polygon fill="black" stroke="black" points="270,-38.5 280,-35 270,-31.5 270,-38.5"/>
<text text-anchor="middle" x="200" y="-38.8" font-family="Times,serif" font-size="14.00">XChaCha20&#45;Poly1305</text>
</g>
</g>
</svg>
