<?xml version="1.0" encoding="UTF-8" standalone="no"?>
<!DOCTYPE svg PUBLIC "-//W3C//DTD SVG 1.1//EN"
 "http://www.w3.org/Graphics/SVG/1.1/DTD/svg11.dtd">
<!-- Generated by graphviz version 2.43.0 (0)
 -->
<!-- Title: g Pages: 1 -->
<svg width="333pt" height="127pt"
 viewBox="0.00 0.00 333.00 127.00" xmlns="http://www.w3.org/2000/svg" xmlns:xlink="http://www.w3.org/1999/xlink">
<g id="graph0" class="graph" transform="scale(1 1) rotate(0) translate(4 123)">
<title>g</title>
<polygon fill="white" stroke="transparent" points="-4,4 -4,-123 329,-123 329,4 -4,4"/>
<!-- u -->
<g id="node1" class="node">
<title>u</title>
<polygon fill="none" stroke="black" points="0,-46.5 0,-115.5 98,-115.5 98,-46.5 0,-46.5"/>
<text text-anchor="middle" x="49" y="-100.3" font-family="Times,serif" font-size="14.00">plaintext block</text>
<polyline fill="none" stroke="black" points="0,-92.5 98,-92.5 "/>
<text text-anchor="middle" x="49" y="-77.3" font-family="Times,serif" font-size="14.00">plaintext block</text>
<polyline fill="none" stroke="black" points="0,-69.5 98,-69.5 "/>
<text text-anchor="middle" x="49" y="-54.3" font-family="Times,serif" font-size="14.00">...</text>
</g>
<!-- e -->
<g id="node2" class="node">
<title>e</title>
<polygon fill="none" stroke="black" points="192,-0.5 192,-115.5 325,-115.5 325,-0.5 192,-0.5"/>
<text text-anchor="middle" x="258.5" y="-100.3" font-family="Times,serif" font-size="14.00">encrypted block</text>
<polyline fill="none" stroke="black" points="192,-92.5 325,-92.5 "/>
<text text-anchor="middle" x="258.5" y="-77.3" font-family="Times,serif" font-size="14.00">encrypted block</text>
<polyline fill="none" stroke="black" points="192,-69.5 325,-69.5 "/>
<text text-anchor="middle" x="258.5" y="-54.3" font-family="Times,serif" font-size="14.00">...</text>
<polyline fill="none" stroke="black" points="192,-46.5 325,-46.5 "/>
<text text-anchor="middle" x="258.5" y="-31.3" font-family="Times,serif" font-size="14.00">FileInfo (variable)</text>
<polyline fill="none" stroke="black" points="192,-23.5 325,-23.5 "/>
<text text-anchor="middle" x="258.5" y="-8.3" font-family="Times,serif" font-size="14.00">len(FileInfo) (uint32)</text>
</g>
<!-- u&#45;&gt;e -->
<g id="edge1" class="edge">
<title>u:b0&#45;&gt;e:b0</title>
<path fill="none" stroke="black" d="M98,-104C136.19,-104 148.2,-104 181.88,-104"/>
<polygon fill="black" stroke="black" points="182,-107.5 192,-104 182,-100.5 182,-107.5"/>
<text text-anchor="middle" x="145" y="-107.8" font-family="Times,serif" font-size="14.00">encryption</text>
</g>
<!-- u&#45;&gt;e -->
<g id="edge2" class="edge">
<title>u:b1&#45;&gt;e:b1</title>
<path fill="none" stroke="black" d="M98,-81C136.19,-81 148.2,-81 181.88,-81"/>
<polygon fill="black" stroke="black" points="182,-84.5 192,-81 182,-77.5 182,-84.5"/>
</g>
</g>
</svg>
