<?xml version="1.0" encoding="UTF-8" standalone="no"?>
<!DOCTYPE svg PUBLIC "-//W3C//DTD SVG 1.1//EN"
 "http://www.w3.org/Graphics/SVG/1.1/DTD/svg11.dtd">
<!-- Generated by graphviz version 2.43.0 (0)
 -->
<!-- Title: g Pages: 1 -->
<svg width="426pt" height="51pt"
 viewBox="0.00 0.00 426.00 51.21" xmlns="http://www.w3.org/2000/svg" xmlns:xlink="http://www.w3.org/1999/xlink">
<g id="graph0" class="graph" transform="scale(1 1) rotate(0) translate(4 47.21)">
<title>g</title>
<polygon fill="white" stroke="transparent" points="-4,4 -4,-47.21 422,-47.21 422,4 -4,4"/>
<!-- T1 -->
<g id="node1" class="node">
<title>T1</title>
<ellipse fill="#7fc97f" stroke="#7fc97f" cx="27" cy="-25.21" rx="27" ry="18"/>
<text text-anchor="middle" x="27" y="-21.51" font-family="Times,serif" font-size="14.00">T1</text>
</g>
<!-- U1 -->
<g id="node2" class="node">
<title>U1</title>
<ellipse fill="#beaed4" stroke="#beaed4" cx="209" cy="-25.21" rx="27" ry="18"/>
<text text-anchor="middle" x="209" y="-21.51" font-family="Times,serif" font-size="14.00">U1</text>
</g>
<!-- T1&#45;&gt;U1 -->
<g id="edge1" class="edge">
<title>T1&#45;&gt;U1</title>
<path fill="none" stroke="black" d="M54.17,-25.21C85.1,-25.21 136.75,-25.21 171.57,-25.21"/>
<polygon fill="black" stroke="black" points="171.79,-28.71 181.79,-25.21 171.79,-21.71 171.79,-28.71"/>
<text text-anchor="middle" x="118" y="-29.01" font-family="Times,serif" font-size="14.00">Encrypted by T1</text>
</g>
<!-- U1&#45;&gt;T1 -->
<g id="edge2" class="edge">
<title>U1&#45;&gt;T1</title>
<path fill="none" stroke="black" d="M187.09,-14.11C179.97,-10.9 171.82,-7.82 164,-6.21 123.96,2.07 112.04,2.07 72,-6.21 67.48,-7.14 62.85,-8.56 58.37,-10.22"/>
<polygon fill="black" stroke="black" points="56.83,-7.07 48.91,-14.11 59.49,-13.54 56.83,-7.07"/>
<text text-anchor="middle" x="118" y="-10.01" font-family="Times,serif" font-size="14.00">Decrypted by T1</text>
</g>
<!-- T2 -->
<g id="node3" class="node">
<title>T2</title>
<ellipse fill="#7fc97f" stroke="#7fc97f" cx="391" cy="-25.21" rx="27" ry="18"/>
<text text-anchor="middle" x="391" y="-21.51" font-family="Times,serif" font-size="14.00">T2</text>
</g>
<!-- U1&#45;&gt;T2 -->
<g id="edge3" class="edge">
<title>U1&#45;&gt;T2</title>
<path fill="none" stroke="black" d="M236.17,-25.21C267.1,-25.21 318.75,-25.21 353.57,-25.21"/>
<polygon fill="black" stroke="black" points="353.79,-28.71 363.79,-25.21 353.79,-21.71 353.79,-28.71"/>
<text text-anchor="middle" x="300" y="-29.01" font-family="Times,serif" font-size="14.00">Decrypted by T2</text>
</g>
<!-- T2&#45;&gt;U1 -->
<g id="edge4" class="edge">
<title>T2&#45;&gt;U1</title>
<path fill="none" stroke="black" d="M369.09,-14.11C361.97,-10.9 353.82,-7.82 346,-6.21 305.96,2.07 294.04,2.07 254,-6.21 249.48,-7.14 244.85,-8.56 240.37,-10.22"/>
<polygon fill="black" stroke="black" points="238.83,-7.07 230.91,-14.11 241.49,-13.54 238.83,-7.07"/>
<text text-anchor="middle" x="300" y="-10.01" font-family="Times,serif" font-size="14.00">Encrypted by T2</text>
</g>
</g>
</svg>
