<?xml version="1.0" encoding="UTF-8" standalone="no"?>
<!DOCTYPE svg PUBLIC "-//W3C//DTD SVG 1.1//EN"
 "http://www.w3.org/Graphics/SVG/1.1/DTD/svg11.dtd">
<!-- Generated by graphviz version 2.43.0 (0)
 -->
<!-- Title: g Pages: 1 -->
<svg width="242pt" height="193pt"
 viewBox="0.00 0.00 242.00 193.00" xmlns="http://www.w3.org/2000/svg" xmlns:xlink="http://www.w3.org/1999/xlink">
<g id="graph0" class="graph" transform="scale(1 1) rotate(0) translate(4 189)">
<title>g</title>
<polygon fill="white" stroke="transparent" points="-4,4 -4,-189 238,-189 238,4 -4,4"/>
<!-- fileinfo -->
<g id="node1" class="node">
<title>fileinfo</title>
<polygon fill="none" stroke="black" points="0,-23.5 0,-184.5 72,-184.5 72,-23.5 0,-23.5"/>
<text text-anchor="middle" x="36" y="-169.3" font-family="Times,serif" font-size="14.00">name</text>
<polyline fill="none" stroke="black" points="0,-161.5 72,-161.5 "/>
<text text-anchor="middle" x="36" y="-146.3" font-family="Times,serif" font-size="14.00">type</text>
<polyline fill="none" stroke="black" points="0,-138.5 72,-138.5 "/>
<text text-anchor="middle" x="36" y="-123.3" font-family="Times,serif" font-size="14.00">size</text>
<polyline fill="none" stroke="black" points="0,-115.5 72,-115.5 "/>
<text text-anchor="middle" x="36" y="-100.3" font-family="Times,serif" font-size="14.00">modified</text>
<polyline fill="none" stroke="black" points="0,-92.5 72,-92.5 "/>
<text text-anchor="middle" x="36" y="-77.3" font-family="Times,serif" font-size="14.00">...</text>
<polyline fill="none" stroke="black" points="0,-69.5 72,-69.5 "/>
<text text-anchor="middle" x="36" y="-54.3" font-family="Times,serif" font-size="14.00">blocks</text>
<polyline fill="none" stroke="black" points="0,-46.5 72,-46.5 "/>
<text text-anchor="middle" x="36" y="-31.3" font-family="Times,serif" font-size="14.00">block size</text>
</g>
<!-- blocks -->
<g id="node2" class="node">
<title>blocks</title>
<polygon fill="none" stroke="black" points="108,-0.5 108,-69.5 234,-69.5 234,-0.5 108,-0.5"/>
<text text-anchor="middle" x="131.5" y="-54.3" font-family="Times,serif" font-size="14.00">offset</text>
<polyline fill="none" stroke="black" points="155,-46.5 155,-69.5 "/>
<text text-anchor="middle" x="174" y="-54.3" font-family="Times,serif" font-size="14.00">size</text>
<polyline fill="none" stroke="black" points="193,-46.5 193,-69.5 "/>
<text text-anchor="middle" x="213.5" y="-54.3" font-family="Times,serif" font-size="14.00">hash</text>
<polyline fill="none" stroke="black" points="108,-46.5 234,-46.5 "/>
<text text-anchor="middle" x="131.5" y="-31.3" font-family="Times,serif" font-size="14.00">offset</text>
<polyline fill="none" stroke="black" points="155,-23.5 155,-46.5 "/>
<text text-anchor="middle" x="174" y="-31.3" font-family="Times,serif" font-size="14.00">size</text>
<polyline fill="none" stroke="black" points="193,-23.5 193,-46.5 "/>
<text text-anchor="middle" x="213.5" y="-31.3" font-family="Times,serif" font-size="14.00">hash</text>
<polyline fill="none" stroke="black" points="108,-23.5 234,-23.5 "/>
<text text-anchor="middle" x="171" y="-8.3" font-family="Times,serif" font-size="14.00">...</text>
</g>
<!-- fileinfo&#45;&gt;blocks -->
<g id="edge1" class="edge">
<title>fileinfo:b&#45;&gt;blocks:a</title>
<path fill="none" stroke="black" d="M72,-58C84,-58 89.25,-58 97.88,-58"/>
<polygon fill="black" stroke="black" points="98,-61.5 108,-58 98,-54.5 98,-61.5"/>
</g>
</g>
</svg>
