<?xml version="1.0" encoding="UTF-8" standalone="no"?>
<!DOCTYPE svg PUBLIC "-//W3C//DTD SVG 1.1//EN"
 "http://www.w3.org/Graphics/SVG/1.1/DTD/svg11.dtd">
<!-- Generated by graphviz version 2.43.0 (0)
 -->
<!-- Title: %3 Pages: 1 -->
<svg width="230pt" height="260pt"
 viewBox="0.00 0.00 229.50 260.00" xmlns="http://www.w3.org/2000/svg" xmlns:xlink="http://www.w3.org/1999/xlink">
<g id="graph0" class="graph" transform="scale(1 1) rotate(0) translate(4 256)">
<title>%3</title>
<polygon fill="white" stroke="transparent" points="-4,4 -4,-256 225.5,-256 225.5,4 -4,4"/>
<!-- folder -->
<g id="node1" class="node">
<title>folder</title>
<polygon fill="none" stroke="black" points="137,-252 134,-256 113,-256 110,-252 83,-252 83,-216 137,-216 137,-252"/>
<text text-anchor="middle" x="110" y="-230.3" font-family="Times,serif" font-size="14.00">folder</text>
</g>
<!-- I.syncthing&#45;enc -->
<g id="node2" class="node">
<title>I.syncthing&#45;enc</title>
<polygon fill="none" stroke="black" points="100,-180 97,-184 76,-184 73,-180 0,-180 0,-144 100,-144 100,-180"/>
<text text-anchor="middle" x="50" y="-158.3" font-family="Times,serif" font-size="14.00">I.syncthing&#45;enc</text>
</g>
<!-- folder&#45;&#45;I.syncthing&#45;enc -->
<g id="edge1" class="edge">
<title>folder&#45;&#45;I.syncthing&#45;enc</title>
<path fill="none" stroke="black" d="M95.17,-215.7C85.87,-204.85 73.93,-190.92 64.66,-180.1"/>
</g>
<!-- S.syncthing&#45;enc -->
<g id="node5" class="node">
<title>S.syncthing&#45;enc</title>
<polygon fill="none" stroke="grey" points="221.5,-180 218.5,-184 197.5,-184 194.5,-180 118.5,-180 118.5,-144 221.5,-144 221.5,-180"/>
<text text-anchor="middle" x="170" y="-158.3" font-family="Times,serif" font-size="14.00">S.syncthing&#45;enc</text>
</g>
<!-- folder&#45;&#45;S.syncthing&#45;enc -->
<g id="edge4" class="edge">
<title>folder&#45;&#45;S.syncthing&#45;enc</title>
<path fill="none" stroke="grey" d="M124.83,-215.7C134.13,-204.85 146.07,-190.92 155.34,-180.1"/>
</g>
<!-- KF -->
<g id="node3" class="node">
<title>KF</title>
<polygon fill="none" stroke="black" points="77,-108 74,-112 53,-112 50,-108 23,-108 23,-72 77,-72 77,-108"/>
<text text-anchor="middle" x="50" y="-86.3" font-family="Times,serif" font-size="14.00">KF</text>
</g>
<!-- I.syncthing&#45;enc&#45;&#45;KF -->
<g id="edge2" class="edge">
<title>I.syncthing&#45;enc&#45;&#45;KF</title>
<path fill="none" stroke="black" d="M50,-143.7C50,-132.85 50,-118.92 50,-108.1"/>
</g>
<!-- EDO9653D... -->
<g id="node4" class="node">
<title>EDO9653D...</title>
<polygon fill="none" stroke="black" points="96.5,-36 3.5,-36 3.5,0 96.5,0 96.5,-36"/>
<text text-anchor="middle" x="50" y="-14.3" font-family="Times,serif" font-size="14.00">EDO9653D...</text>
</g>
<!-- KF&#45;&#45;EDO9653D... -->
<g id="edge3" class="edge">
<title>KF&#45;&#45;EDO9653D...</title>
<path fill="none" stroke="black" d="M50,-71.7C50,-60.85 50,-46.92 50,-36.1"/>
</g>
<!-- 21 -->
<g id="node6" class="node">
<title>21</title>
<polygon fill="none" stroke="grey" points="197,-108 194,-112 173,-112 170,-108 143,-108 143,-72 197,-72 197,-108"/>
<text text-anchor="middle" x="170" y="-86.3" font-family="Times,serif" font-size="14.00">21</text>
</g>
<!-- S.syncthing&#45;enc&#45;&#45;21 -->
<g id="edge5" class="edge">
<title>S.syncthing&#45;enc&#45;&#45;21</title>
<path fill="none" stroke="grey" d="M170,-143.7C170,-132.85 170,-118.92 170,-108.1"/>
</g>
<!-- K3P1VJO0... -->
<g id="node7" class="node">
<title>K3P1VJO0...</title>
<polygon fill="none" stroke="grey" points="216,-36 124,-36 124,0 216,0 216,-36"/>
<text text-anchor="middle" x="170" y="-14.3" font-family="Times,serif" font-size="14.00">K3P1VJO0...</text>
</g>
<!-- 21&#45;&#45;K3P1VJO0... -->
<g id="edge6" class="edge">
<title>21&#45;&#45;K3P1VJO0...</title>
<path fill="none" stroke="grey" d="M170,-71.7C170,-60.85 170,-46.92 170,-36.1"/>
</g>
</g>
</svg>
