<?xml version="1.0" encoding="UTF-8" standalone="no"?>
<!DOCTYPE svg PUBLIC "-//W3C//DTD SVG 1.1//EN"
 "http://www.w3.org/Graphics/SVG/1.1/DTD/svg11.dtd">
<!-- Generated by graphviz version 2.43.0 (0)
 -->
<!-- Title: g Pages: 1 -->
<svg width="428pt" height="122pt"
 viewBox="0.00 0.00 428.00 121.98" xmlns="http://www.w3.org/2000/svg" xmlns:xlink="http://www.w3.org/1999/xlink">
<g id="graph0" class="graph" transform="scale(1 1) rotate(0) translate(4 117.98)">
<title>g</title>
<polygon fill="white" stroke="transparent" points="-4,4 -4,-117.98 424,-117.98 424,4 -4,4"/>
<!-- T1 -->
<g id="node1" class="node">
<title>T1</title>
<ellipse fill="#7fc97f" stroke="#7fc97f" cx="27" cy="-95.98" rx="27" ry="18"/>
<text text-anchor="middle" x="27" y="-92.28" font-family="Times,serif" font-size="14.00">T1</text>
</g>
<!-- U1 -->
<g id="node2" class="node">
<title>U1</title>
<ellipse fill="#beaed4" stroke="#beaed4" cx="210" cy="-95.98" rx="27" ry="18"/>
<text text-anchor="middle" x="210" y="-92.28" font-family="Times,serif" font-size="14.00">U1</text>
</g>
<!-- T1&#45;&gt;U1 -->
<g id="edge1" class="edge">
<title>T1&#45;&gt;U1</title>
<path fill="none" stroke="black" d="M54.32,-95.98C85.51,-95.98 137.65,-95.98 172.67,-95.98"/>
<polygon fill="black" stroke="black" points="172.94,-99.48 182.94,-95.98 172.94,-92.48 172.94,-99.48"/>
<text text-anchor="middle" x="118.5" y="-99.78" font-family="Times,serif" font-size="14.00">Encrypted by T1</text>
</g>
<!-- U1&#45;&gt;T1 -->
<g id="edge2" class="edge">
<title>U1&#45;&gt;T1</title>
<path fill="none" stroke="black" d="M188.09,-84.89C180.97,-81.67 172.82,-78.6 165,-76.98 124.52,-68.62 112.48,-68.62 72,-76.98 67.48,-77.92 62.85,-79.34 58.37,-80.99"/>
<polygon fill="black" stroke="black" points="56.83,-77.84 48.91,-84.89 59.49,-84.32 56.83,-77.84"/>
<text text-anchor="middle" x="118.5" y="-80.78" font-family="Times,serif" font-size="14.00">Decrypted by T1</text>
</g>
<!-- U2 -->
<g id="node4" class="node">
<title>U2</title>
<ellipse fill="#beaed4" stroke="#beaed4" cx="210" cy="-23.98" rx="27" ry="18"/>
<text text-anchor="middle" x="210" y="-20.28" font-family="Times,serif" font-size="14.00">U2</text>
</g>
<!-- U1&#45;&gt;U2 -->
<g id="edge5" class="edge">
<title>U1&#45;&gt;U2</title>
<path fill="none" stroke="black" d="M210,-67.77C210,-62.54 210,-57.3 210,-52.07"/>
<polygon fill="black" stroke="black" points="206.5,-67.84 210,-77.84 213.5,-67.84 206.5,-67.84"/>
<polygon fill="black" stroke="black" points="213.5,-51.98 210,-41.98 206.5,-51.98 213.5,-51.98"/>
</g>
<!-- T2 -->
<g id="node3" class="node">
<title>T2</title>
<ellipse fill="#7fc97f" stroke="#7fc97f" cx="393" cy="-23.98" rx="27" ry="18"/>
<text text-anchor="middle" x="393" y="-20.28" font-family="Times,serif" font-size="14.00">T2</text>
</g>
<!-- T2&#45;&gt;U2 -->
<g id="edge3" class="edge">
<title>T2&#45;&gt;U2</title>
<path fill="none" stroke="black" d="M371.03,-13.47C363.91,-10.42 355.77,-7.51 348,-5.98 307.44,1.99 295.56,1.99 255,-5.98 250.51,-6.86 245.89,-8.21 241.42,-9.78"/>
<polygon fill="black" stroke="black" points="240.01,-6.57 231.97,-13.47 242.56,-13.09 240.01,-6.57"/>
<text text-anchor="middle" x="301.5" y="-9.78" font-family="Times,serif" font-size="14.00">Encrypted by T2</text>
</g>
<!-- U2&#45;&gt;T2 -->
<g id="edge4" class="edge">
<title>U2&#45;&gt;T2</title>
<path fill="none" stroke="black" d="M237.32,-23.98C268.51,-23.98 320.65,-23.98 355.67,-23.98"/>
<polygon fill="black" stroke="black" points="355.94,-27.48 365.94,-23.98 355.94,-20.48 355.94,-27.48"/>
<text text-anchor="middle" x="301.5" y="-27.78" font-family="Times,serif" font-size="14.00">Decrypted by T2</text>
</g>
</g>
</svg>
